<svg xmlns="http://www.w3.org/2000/svg" viewBox="0 0 800 450"><rect width="800" height="450" fill="#FAF6EF"/><rect x="356" y="96" width="88" height="240" fill="#C05B33"/><rect x="376" y="52" width="48" height="44" fill="#C05B33"/><circle cx="400" cy="40" r="10" fill="#C8A24B"/><rect x="372" y="150" width="14" height="26" rx="7" fill="#FAF6EF"/><rect x="414" y="150" width="14" height="26" rx="7" fill="#FAF6EF"/><g fill="#4A5FC1"><path d="M130 336 L130 296 A34 34 0 1 1 198 296 L198 336 Z"/><path d="M240 336 L240 296 A34 34 0 1 1 308 296 L308 336 Z"/><path d="M492 336 L492 296 A34 34 0 1 1 560 296 L560 336 Z"/><path d="M602 336 L602 296 A34 34 0 1 1 670 296 L670 336 Z"/></g><rect x="90" y="336" width="620" height="14" fill="#16243D" opacity="0.85"/></svg>
