<svg xmlns="http://www.w3.org/2000/svg" viewBox="0 0 800 450"><rect width="800" height="450" fill="#F1ECDF"/><path d="M60 120 L360 210 L60 300 Z" fill="#C8A24B" opacity="0.4"/><g transform="rotate(-8 400 245)"><rect x="120" y="190" width="600" height="110" rx="8" fill="#16243D"/><g fill="#F1ECDF"><rect x="140" y="200" width="22" height="12" rx="3"/><rect x="190" y="200" width="22" height="12" rx="3"/><rect x="240" y="200" width="22" height="12" rx="3"/><rect x="290" y="200" width="22" height="12" rx="3"/><rect x="340" y="200" width="22" height="12" rx="3"/><rect x="390" y="200" width="22" height="12" rx="3"/><rect x="440" y="200" width="22" height="12" rx="3"/><rect x="490" y="200" width="22" height="12" rx="3"/><rect x="540" y="200" width="22" height="12" rx="3"/><rect x="590" y="200" width="22" height="12" rx="3"/><rect x="640" y="200" width="22" height="12" rx="3"/><rect x="140" y="278" width="22" height="12" rx="3"/><rect x="190" y="278" width="22" height="12" rx="3"/><rect x="240" y="278" width="22" height="12" rx="3"/><rect x="290" y="278" width="22" height="12" rx="3"/><rect x="340" y="278" width="22" height="12" rx="3"/><rect x="390" y="278" width="22" height="12" rx="3"/><rect x="440" y="278" width="22" height="12" rx="3"/><rect x="490" y="278" width="22" height="12" rx="3"/><rect x="540" y="278" width="22" height="12" rx="3"/><rect x="590" y="278" width="22" height="12" rx="3"/><rect x="640" y="278" width="22" height="12" rx="3"/></g><rect x="150" y="222" width="150" height="46" rx="4" fill="#C05B33"/><rect x="325" y="222" width="150" height="46" rx="4" fill="#4A5FC1"/><rect x="500" y="222" width="150" height="46" rx="4" fill="#2F6B4F"/></g></svg>
