<svg xmlns="http://www.w3.org/2000/svg" viewBox="0 0 800 450"><rect width="800" height="450" fill="#F1ECDF"/><rect x="368" y="120" width="64" height="118" rx="32" fill="#16243D"/><path d="M340 210 A60 60 0 0 0 460 210" fill="none" stroke="#16243D" stroke-width="10"/><line x1="400" y1="272" x2="400" y2="318" stroke="#16243D" stroke-width="10"/><line x1="362" y1="318" x2="438" y2="318" stroke="#16243D" stroke-width="10" stroke-linecap="round"/><path d="M300 130 A105 105 0 0 0 300 250" fill="none" stroke="#C05B33" stroke-width="9" opacity="0.75"/><path d="M500 130 A105 105 0 0 1 500 250" fill="none" stroke="#C05B33" stroke-width="9" opacity="0.75"/><path d="M258 105 A150 150 0 0 0 258 275" fill="none" stroke="#4A5FC1" stroke-width="8" opacity="0.5"/><path d="M542 105 A150 150 0 0 1 542 275" fill="none" stroke="#4A5FC1" stroke-width="8" opacity="0.5"/></svg>
